<svg id="Artwork" xmlns="http://www.w3.org/2000/svg" viewBox="0 0 144 144"><defs><style>.cls-1,.cls-2{fill:#fff;}.cls-2{fill-rule:evenodd;}</style></defs><g id="_1809" data-name="1809"><g id="_1809-2" data-name="1809"><path class="cls-1" d="M72,3.6A68.4,68.4,0,1,1,3.6,72,68.47,68.47,0,0,1,72,3.6m0-4A72.4,72.4,0,1,0,144.4,72,72.48,72.48,0,0,0,72-.4Z"/><path class="cls-1" d="M99.42,64.85a2.32,2.32,0,1,1,0-4.63,2.32,2.32,0,1,1,0,4.63Z"/><path class="cls-1" d="M88,64.89c-2.42,0-4.32-1.17-4.28-4.54l.21-12.87-3.37-.09.13-.73,5.79-4.84L87,42l0,3.8h6.39l-.52,1.64H86.92s-.3,12.49-.3,12.53a2.63,2.63,0,0,0,2.93,3,6,6,0,0,0,3.68-1.52l.25.44C91.89,63.42,90.07,64.89,88,64.89Z"/><path class="cls-1" d="M71.76,64.89a15.46,15.46,0,0,1-5.53-1l-.39-5.23h.73l.91,2.51a5.3,5.3,0,0,0,4.58,3c2.5,0,4.32-1.56,4.32-3.76,0-2.38-1.95-3.46-4.8-4.41-2.59-.91-5.27-2.16-5.27-5.49,0-3.06,2.64-5.4,6.27-5.4a10.56,10.56,0,0,1,3.88.74l1.39-.43.26,5.18h-.74L75.6,47a5.19,5.19,0,0,0-3.15-1.12c-2.34,0-3.72,1.3-3.72,3.24,0,2.29,1.86,3.07,4.54,4,2.89,1,5.66,2.2,5.66,5.83C78.93,62.08,76.25,64.89,71.76,64.89Z"/><path class="cls-1" d="M40.82,64.29l.13-.65,1.86-.18c1.25-.12,1.77-.34,1.77-.64V38.62c0-.3-.21-.38-2-.56L41,37.93l-.13-.64H61L61.56,45h-.69l-.43-1.78C59.18,39.62,58.1,38,52.36,38H48V49.9l3,0c3.88-.09,4.66-.48,5.31-2.68l.43-1.25.61,0-.87,8.73-.6-.05-.09-1.21c-.17-2.37-.82-2.63-5-2.76l-2.76,0V63.38l4.7.13c6.44,0,7.78-2.33,9.08-5.53l.51-1.69.74.05-1.47,8Z"/><path class="cls-2" d="M97.13,77.4c-4.28,0-8.39,3.5-8.39,9.07,0,4.57,3,8.07,7.17,8.07a9.19,9.19,0,0,0,6.59-3.32l.08,0c-1.38,6.48-5.66,12.52-13.64,14.16l.17.61c9.57-1.34,16.81-8.86,16.81-18C105.92,82,102.38,77.4,97.13,77.4Zm.28,15.46c-3.33,0-5.82-3.24-5.82-7.51s2.12-7.26,5.29-7.26c3.83,0,6.11,4.45,6.11,9.54a13,13,0,0,1-.28,2.72A7.1,7.1,0,0,1,97.41,92.86Z"/><path class="cls-2" d="M78.22,77.4c-5.31,0-9.1,6.51-9.1,14.58s3.79,14.22,8.94,14.22c5.55,0,9.06-6.15,9.06-14.49C87.12,83.6,83.29,77.4,78.22,77.4Zm0,28c-3.75,0-6-4.32-6-14.31,0-8.43,2.44-12.93,5.75-12.93,3.67,0,6,4.5,6,14.14C84,101,81.61,105.44,78.26,105.44Z"/><path class="cls-2" d="M61.74,90.72v-.08C64.69,89.27,67,87,67,84.35a6.94,6.94,0,0,0-7.2-6.95,7.61,7.61,0,0,0-7.47,7.52c0,3.34,2.34,5.23,5.33,6.9v.09c-3.55,1.19-6.14,3.78-6.14,7,0,4.13,3.55,7.25,8,7.25a8,8,0,0,0,8.24-7.78C67.68,94.5,65,92.53,61.74,90.72Zm-7.11-7.43c0-2.77,1.78-5.19,4.57-5.19,3.15,0,5.17,3.12,5.17,6.38a7.15,7.15,0,0,1-3.15,5.94C57.62,88.66,54.63,86.85,54.63,83.29ZM60,105.46c-3.68,0-5.9-2.95-5.9-6.56a7.47,7.47,0,0,1,4.08-6.68C61.83,94,65.42,96,65.42,100A5.17,5.17,0,0,1,60,105.46Z"/><path class="cls-2" d="M38.63,104.84l2.55-.26c1.27-.13,1.72-.34,1.72-.77l0-23.15-5.05-.52.13-.51,8.12-1.15v25.38c0,.38.27.64,2.07.72l2.15.26.13.64H38.5Z"/></g></g></svg>